<mxfile host="app.diagrams.net" modified="2023-08-19T13:00:47.798Z" agent="Mozilla/5.0 (Windows NT 10.0; Win64; x64) AppleWebKit/537.36 (KHTML, like Gecko) Chrome/115.0.0.0 Safari/537.36" etag="yKkKRGqlrl9GwxksPjNs" version="21.6.8" type="device">
  <diagram name="Страница 1" id="aV-OO3-BmOo7UvDMO-nR">
    <mxGraphModel dx="1434" dy="758" grid="1" gridSize="10" guides="1" tooltips="1" connect="1" arrows="1" fold="1" page="1" pageScale="1" pageWidth="827" pageHeight="1169" math="0" shadow="0">
      <root>
        <mxCell id="0" />
        <mxCell id="1" parent="0" />
        <mxCell id="HRVgeZ2zx_qD791oWAbW-58" value="zhanr" style="shape=table;startSize=30;container=1;collapsible=0;childLayout=tableLayout;strokeColor=default;fontSize=16;" parent="1" vertex="1">
          <mxGeometry x="50" y="30" width="193" height="230" as="geometry" />
        </mxCell>
        <mxCell id="HRVgeZ2zx_qD791oWAbW-59" value="" style="shape=tableRow;horizontal=0;startSize=0;swimlaneHead=0;swimlaneBody=0;strokeColor=inherit;top=0;left=0;bottom=0;right=0;collapsible=0;dropTarget=0;fillColor=none;points=[[0,0.5],[1,0.5]];portConstraint=eastwest;fontSize=16;" parent="HRVgeZ2zx_qD791oWAbW-58" vertex="1">
          <mxGeometry y="30" width="193" height="40" as="geometry" />
        </mxCell>
        <mxCell id="HRVgeZ2zx_qD791oWAbW-60" value="id" style="shape=partialRectangle;html=1;whiteSpace=wrap;connectable=0;strokeColor=inherit;overflow=hidden;fillColor=none;top=0;left=0;bottom=0;right=0;pointerEvents=1;fontSize=16;" parent="HRVgeZ2zx_qD791oWAbW-59" vertex="1">
          <mxGeometry width="97" height="40" as="geometry">
            <mxRectangle width="97" height="40" as="alternateBounds" />
          </mxGeometry>
        </mxCell>
        <mxCell id="HRVgeZ2zx_qD791oWAbW-61" value="Zhanr" style="shape=partialRectangle;html=1;whiteSpace=wrap;connectable=0;strokeColor=inherit;overflow=hidden;fillColor=none;top=0;left=0;bottom=0;right=0;pointerEvents=1;fontSize=16;" parent="HRVgeZ2zx_qD791oWAbW-59" vertex="1">
          <mxGeometry x="97" width="96" height="40" as="geometry">
            <mxRectangle width="96" height="40" as="alternateBounds" />
          </mxGeometry>
        </mxCell>
        <mxCell id="HRVgeZ2zx_qD791oWAbW-63" value="" style="shape=tableRow;horizontal=0;startSize=0;swimlaneHead=0;swimlaneBody=0;strokeColor=inherit;top=0;left=0;bottom=0;right=0;collapsible=0;dropTarget=0;fillColor=none;points=[[0,0.5],[1,0.5]];portConstraint=eastwest;fontSize=16;" parent="HRVgeZ2zx_qD791oWAbW-58" vertex="1">
          <mxGeometry y="70" width="193" height="40" as="geometry" />
        </mxCell>
        <mxCell id="HRVgeZ2zx_qD791oWAbW-64" value="1" style="shape=partialRectangle;html=1;whiteSpace=wrap;connectable=0;strokeColor=inherit;overflow=hidden;fillColor=none;top=0;left=0;bottom=0;right=0;pointerEvents=1;fontSize=16;" parent="HRVgeZ2zx_qD791oWAbW-63" vertex="1">
          <mxGeometry width="97" height="40" as="geometry">
            <mxRectangle width="97" height="40" as="alternateBounds" />
          </mxGeometry>
        </mxCell>
        <mxCell id="HRVgeZ2zx_qD791oWAbW-65" value="pop" style="shape=partialRectangle;html=1;whiteSpace=wrap;connectable=0;strokeColor=inherit;overflow=hidden;fillColor=none;top=0;left=0;bottom=0;right=0;pointerEvents=1;fontSize=16;" parent="HRVgeZ2zx_qD791oWAbW-63" vertex="1">
          <mxGeometry x="97" width="96" height="40" as="geometry">
            <mxRectangle width="96" height="40" as="alternateBounds" />
          </mxGeometry>
        </mxCell>
        <mxCell id="HRVgeZ2zx_qD791oWAbW-67" value="" style="shape=tableRow;horizontal=0;startSize=0;swimlaneHead=0;swimlaneBody=0;strokeColor=inherit;top=0;left=0;bottom=0;right=0;collapsible=0;dropTarget=0;fillColor=none;points=[[0,0.5],[1,0.5]];portConstraint=eastwest;fontSize=16;" parent="HRVgeZ2zx_qD791oWAbW-58" vertex="1">
          <mxGeometry y="110" width="193" height="40" as="geometry" />
        </mxCell>
        <mxCell id="HRVgeZ2zx_qD791oWAbW-68" value="2" style="shape=partialRectangle;html=1;whiteSpace=wrap;connectable=0;strokeColor=inherit;overflow=hidden;fillColor=none;top=0;left=0;bottom=0;right=0;pointerEvents=1;fontSize=16;" parent="HRVgeZ2zx_qD791oWAbW-67" vertex="1">
          <mxGeometry width="97" height="40" as="geometry">
            <mxRectangle width="97" height="40" as="alternateBounds" />
          </mxGeometry>
        </mxCell>
        <mxCell id="HRVgeZ2zx_qD791oWAbW-69" value="rock" style="shape=partialRectangle;html=1;whiteSpace=wrap;connectable=0;strokeColor=inherit;overflow=hidden;fillColor=none;top=0;left=0;bottom=0;right=0;pointerEvents=1;fontSize=16;" parent="HRVgeZ2zx_qD791oWAbW-67" vertex="1">
          <mxGeometry x="97" width="96" height="40" as="geometry">
            <mxRectangle width="96" height="40" as="alternateBounds" />
          </mxGeometry>
        </mxCell>
        <mxCell id="HRVgeZ2zx_qD791oWAbW-78" style="shape=tableRow;horizontal=0;startSize=0;swimlaneHead=0;swimlaneBody=0;strokeColor=inherit;top=0;left=0;bottom=0;right=0;collapsible=0;dropTarget=0;fillColor=none;points=[[0,0.5],[1,0.5]];portConstraint=eastwest;fontSize=16;" parent="HRVgeZ2zx_qD791oWAbW-58" vertex="1">
          <mxGeometry y="150" width="193" height="40" as="geometry" />
        </mxCell>
        <mxCell id="HRVgeZ2zx_qD791oWAbW-79" value="3" style="shape=partialRectangle;html=1;whiteSpace=wrap;connectable=0;strokeColor=inherit;overflow=hidden;fillColor=none;top=0;left=0;bottom=0;right=0;pointerEvents=1;fontSize=16;" parent="HRVgeZ2zx_qD791oWAbW-78" vertex="1">
          <mxGeometry width="97" height="40" as="geometry">
            <mxRectangle width="97" height="40" as="alternateBounds" />
          </mxGeometry>
        </mxCell>
        <mxCell id="HRVgeZ2zx_qD791oWAbW-80" value="grang" style="shape=partialRectangle;html=1;whiteSpace=wrap;connectable=0;strokeColor=inherit;overflow=hidden;fillColor=none;top=0;left=0;bottom=0;right=0;pointerEvents=1;fontSize=16;" parent="HRVgeZ2zx_qD791oWAbW-78" vertex="1">
          <mxGeometry x="97" width="96" height="40" as="geometry">
            <mxRectangle width="96" height="40" as="alternateBounds" />
          </mxGeometry>
        </mxCell>
        <mxCell id="HRVgeZ2zx_qD791oWAbW-82" style="shape=tableRow;horizontal=0;startSize=0;swimlaneHead=0;swimlaneBody=0;strokeColor=inherit;top=0;left=0;bottom=0;right=0;collapsible=0;dropTarget=0;fillColor=none;points=[[0,0.5],[1,0.5]];portConstraint=eastwest;fontSize=16;" parent="HRVgeZ2zx_qD791oWAbW-58" vertex="1">
          <mxGeometry y="190" width="193" height="40" as="geometry" />
        </mxCell>
        <mxCell id="HRVgeZ2zx_qD791oWAbW-83" value="4" style="shape=partialRectangle;html=1;whiteSpace=wrap;connectable=0;strokeColor=inherit;overflow=hidden;fillColor=none;top=0;left=0;bottom=0;right=0;pointerEvents=1;fontSize=16;" parent="HRVgeZ2zx_qD791oWAbW-82" vertex="1">
          <mxGeometry width="97" height="40" as="geometry">
            <mxRectangle width="97" height="40" as="alternateBounds" />
          </mxGeometry>
        </mxCell>
        <mxCell id="HRVgeZ2zx_qD791oWAbW-84" value="rock" style="shape=partialRectangle;html=1;whiteSpace=wrap;connectable=0;strokeColor=inherit;overflow=hidden;fillColor=none;top=0;left=0;bottom=0;right=0;pointerEvents=1;fontSize=16;" parent="HRVgeZ2zx_qD791oWAbW-82" vertex="1">
          <mxGeometry x="97" width="96" height="40" as="geometry">
            <mxRectangle width="96" height="40" as="alternateBounds" />
          </mxGeometry>
        </mxCell>
        <mxCell id="HRVgeZ2zx_qD791oWAbW-120" value="Album" style="shape=table;startSize=30;container=1;collapsible=0;childLayout=tableLayout;strokeColor=default;fontSize=16;" parent="1" vertex="1">
          <mxGeometry x="414" y="30" width="422" height="313" as="geometry" />
        </mxCell>
        <mxCell id="HRVgeZ2zx_qD791oWAbW-121" value="" style="shape=tableRow;horizontal=0;startSize=0;swimlaneHead=0;swimlaneBody=0;strokeColor=inherit;top=0;left=0;bottom=0;right=0;collapsible=0;dropTarget=0;fillColor=none;points=[[0,0.5],[1,0.5]];portConstraint=eastwest;fontSize=16;" parent="HRVgeZ2zx_qD791oWAbW-120" vertex="1">
          <mxGeometry y="30" width="422" height="39" as="geometry" />
        </mxCell>
        <mxCell id="HRVgeZ2zx_qD791oWAbW-122" value="id" style="shape=partialRectangle;html=1;whiteSpace=wrap;connectable=0;strokeColor=inherit;overflow=hidden;fillColor=none;top=0;left=0;bottom=0;right=0;pointerEvents=1;fontSize=16;" parent="HRVgeZ2zx_qD791oWAbW-121" vertex="1">
          <mxGeometry width="105" height="39" as="geometry">
            <mxRectangle width="105" height="39" as="alternateBounds" />
          </mxGeometry>
        </mxCell>
        <mxCell id="HRVgeZ2zx_qD791oWAbW-123" value="album" style="shape=partialRectangle;html=1;whiteSpace=wrap;connectable=0;strokeColor=inherit;overflow=hidden;fillColor=none;top=0;left=0;bottom=0;right=0;pointerEvents=1;fontSize=16;" parent="HRVgeZ2zx_qD791oWAbW-121" vertex="1">
          <mxGeometry x="105" width="106" height="39" as="geometry">
            <mxRectangle width="106" height="39" as="alternateBounds" />
          </mxGeometry>
        </mxCell>
        <mxCell id="HRVgeZ2zx_qD791oWAbW-145" value="year" style="shape=partialRectangle;html=1;whiteSpace=wrap;connectable=0;strokeColor=inherit;overflow=hidden;fillColor=none;top=0;left=0;bottom=0;right=0;pointerEvents=1;fontSize=16;" parent="HRVgeZ2zx_qD791oWAbW-121" vertex="1">
          <mxGeometry x="211" width="106" height="39" as="geometry">
            <mxRectangle width="106" height="39" as="alternateBounds" />
          </mxGeometry>
        </mxCell>
        <mxCell id="HRVgeZ2zx_qD791oWAbW-124" value="ispolnitel_id" style="shape=partialRectangle;html=1;whiteSpace=wrap;connectable=0;strokeColor=inherit;overflow=hidden;fillColor=none;top=0;left=0;bottom=0;right=0;pointerEvents=1;fontSize=16;" parent="HRVgeZ2zx_qD791oWAbW-121" vertex="1">
          <mxGeometry x="317" width="105" height="39" as="geometry">
            <mxRectangle width="105" height="39" as="alternateBounds" />
          </mxGeometry>
        </mxCell>
        <mxCell id="HRVgeZ2zx_qD791oWAbW-125" value="" style="shape=tableRow;horizontal=0;startSize=0;swimlaneHead=0;swimlaneBody=0;strokeColor=inherit;top=0;left=0;bottom=0;right=0;collapsible=0;dropTarget=0;fillColor=none;points=[[0,0.5],[1,0.5]];portConstraint=eastwest;fontSize=16;" parent="HRVgeZ2zx_qD791oWAbW-120" vertex="1">
          <mxGeometry y="69" width="422" height="38" as="geometry" />
        </mxCell>
        <mxCell id="HRVgeZ2zx_qD791oWAbW-126" value="1" style="shape=partialRectangle;html=1;whiteSpace=wrap;connectable=0;strokeColor=inherit;overflow=hidden;fillColor=none;top=0;left=0;bottom=0;right=0;pointerEvents=1;fontSize=16;" parent="HRVgeZ2zx_qD791oWAbW-125" vertex="1">
          <mxGeometry width="105" height="38" as="geometry">
            <mxRectangle width="105" height="38" as="alternateBounds" />
          </mxGeometry>
        </mxCell>
        <mxCell id="HRVgeZ2zx_qD791oWAbW-127" value="popka moya" style="shape=partialRectangle;html=1;whiteSpace=wrap;connectable=0;strokeColor=inherit;overflow=hidden;fillColor=none;top=0;left=0;bottom=0;right=0;pointerEvents=1;fontSize=16;" parent="HRVgeZ2zx_qD791oWAbW-125" vertex="1">
          <mxGeometry x="105" width="106" height="38" as="geometry">
            <mxRectangle width="106" height="38" as="alternateBounds" />
          </mxGeometry>
        </mxCell>
        <mxCell id="HRVgeZ2zx_qD791oWAbW-146" value="2002" style="shape=partialRectangle;html=1;whiteSpace=wrap;connectable=0;strokeColor=inherit;overflow=hidden;fillColor=none;top=0;left=0;bottom=0;right=0;pointerEvents=1;fontSize=16;" parent="HRVgeZ2zx_qD791oWAbW-125" vertex="1">
          <mxGeometry x="211" width="106" height="38" as="geometry">
            <mxRectangle width="106" height="38" as="alternateBounds" />
          </mxGeometry>
        </mxCell>
        <mxCell id="HRVgeZ2zx_qD791oWAbW-128" value="3" style="shape=partialRectangle;html=1;whiteSpace=wrap;connectable=0;strokeColor=inherit;overflow=hidden;fillColor=none;top=0;left=0;bottom=0;right=0;pointerEvents=1;fontSize=16;" parent="HRVgeZ2zx_qD791oWAbW-125" vertex="1">
          <mxGeometry x="317" width="105" height="38" as="geometry">
            <mxRectangle width="105" height="38" as="alternateBounds" />
          </mxGeometry>
        </mxCell>
        <mxCell id="HRVgeZ2zx_qD791oWAbW-129" value="" style="shape=tableRow;horizontal=0;startSize=0;swimlaneHead=0;swimlaneBody=0;strokeColor=inherit;top=0;left=0;bottom=0;right=0;collapsible=0;dropTarget=0;fillColor=none;points=[[0,0.5],[1,0.5]];portConstraint=eastwest;fontSize=16;" parent="HRVgeZ2zx_qD791oWAbW-120" vertex="1">
          <mxGeometry y="107" width="422" height="39" as="geometry" />
        </mxCell>
        <mxCell id="HRVgeZ2zx_qD791oWAbW-130" value="2" style="shape=partialRectangle;html=1;whiteSpace=wrap;connectable=0;strokeColor=inherit;overflow=hidden;fillColor=none;top=0;left=0;bottom=0;right=0;pointerEvents=1;fontSize=16;" parent="HRVgeZ2zx_qD791oWAbW-129" vertex="1">
          <mxGeometry width="105" height="39" as="geometry">
            <mxRectangle width="105" height="39" as="alternateBounds" />
          </mxGeometry>
        </mxCell>
        <mxCell id="HRVgeZ2zx_qD791oWAbW-131" value="vesna" style="shape=partialRectangle;html=1;whiteSpace=wrap;connectable=0;strokeColor=inherit;overflow=hidden;fillColor=none;top=0;left=0;bottom=0;right=0;pointerEvents=1;fontSize=16;" parent="HRVgeZ2zx_qD791oWAbW-129" vertex="1">
          <mxGeometry x="105" width="106" height="39" as="geometry">
            <mxRectangle width="106" height="39" as="alternateBounds" />
          </mxGeometry>
        </mxCell>
        <mxCell id="HRVgeZ2zx_qD791oWAbW-147" value="2003" style="shape=partialRectangle;html=1;whiteSpace=wrap;connectable=0;strokeColor=inherit;overflow=hidden;fillColor=none;top=0;left=0;bottom=0;right=0;pointerEvents=1;fontSize=16;" parent="HRVgeZ2zx_qD791oWAbW-129" vertex="1">
          <mxGeometry x="211" width="106" height="39" as="geometry">
            <mxRectangle width="106" height="39" as="alternateBounds" />
          </mxGeometry>
        </mxCell>
        <mxCell id="HRVgeZ2zx_qD791oWAbW-132" value="1" style="shape=partialRectangle;html=1;whiteSpace=wrap;connectable=0;strokeColor=inherit;overflow=hidden;fillColor=none;top=0;left=0;bottom=0;right=0;pointerEvents=1;fontSize=16;" parent="HRVgeZ2zx_qD791oWAbW-129" vertex="1">
          <mxGeometry x="317" width="105" height="39" as="geometry">
            <mxRectangle width="105" height="39" as="alternateBounds" />
          </mxGeometry>
        </mxCell>
        <mxCell id="HRVgeZ2zx_qD791oWAbW-137" style="shape=tableRow;horizontal=0;startSize=0;swimlaneHead=0;swimlaneBody=0;strokeColor=inherit;top=0;left=0;bottom=0;right=0;collapsible=0;dropTarget=0;fillColor=none;points=[[0,0.5],[1,0.5]];portConstraint=eastwest;fontSize=16;" parent="HRVgeZ2zx_qD791oWAbW-120" vertex="1">
          <mxGeometry y="146" width="422" height="39" as="geometry" />
        </mxCell>
        <mxCell id="HRVgeZ2zx_qD791oWAbW-138" value="3" style="shape=partialRectangle;html=1;whiteSpace=wrap;connectable=0;strokeColor=inherit;overflow=hidden;fillColor=none;top=0;left=0;bottom=0;right=0;pointerEvents=1;fontSize=16;" parent="HRVgeZ2zx_qD791oWAbW-137" vertex="1">
          <mxGeometry width="105" height="39" as="geometry">
            <mxRectangle width="105" height="39" as="alternateBounds" />
          </mxGeometry>
        </mxCell>
        <mxCell id="HRVgeZ2zx_qD791oWAbW-139" value="nevermind" style="shape=partialRectangle;html=1;whiteSpace=wrap;connectable=0;strokeColor=inherit;overflow=hidden;fillColor=none;top=0;left=0;bottom=0;right=0;pointerEvents=1;fontSize=16;" parent="HRVgeZ2zx_qD791oWAbW-137" vertex="1">
          <mxGeometry x="105" width="106" height="39" as="geometry">
            <mxRectangle width="106" height="39" as="alternateBounds" />
          </mxGeometry>
        </mxCell>
        <mxCell id="HRVgeZ2zx_qD791oWAbW-148" value="1998" style="shape=partialRectangle;html=1;whiteSpace=wrap;connectable=0;strokeColor=inherit;overflow=hidden;fillColor=none;top=0;left=0;bottom=0;right=0;pointerEvents=1;fontSize=16;" parent="HRVgeZ2zx_qD791oWAbW-137" vertex="1">
          <mxGeometry x="211" width="106" height="39" as="geometry">
            <mxRectangle width="106" height="39" as="alternateBounds" />
          </mxGeometry>
        </mxCell>
        <mxCell id="HRVgeZ2zx_qD791oWAbW-140" value="2" style="shape=partialRectangle;html=1;whiteSpace=wrap;connectable=0;strokeColor=inherit;overflow=hidden;fillColor=none;top=0;left=0;bottom=0;right=0;pointerEvents=1;fontSize=16;" parent="HRVgeZ2zx_qD791oWAbW-137" vertex="1">
          <mxGeometry x="317" width="105" height="39" as="geometry">
            <mxRectangle width="105" height="39" as="alternateBounds" />
          </mxGeometry>
        </mxCell>
        <mxCell id="HRVgeZ2zx_qD791oWAbW-133" style="shape=tableRow;horizontal=0;startSize=0;swimlaneHead=0;swimlaneBody=0;strokeColor=inherit;top=0;left=0;bottom=0;right=0;collapsible=0;dropTarget=0;fillColor=none;points=[[0,0.5],[1,0.5]];portConstraint=eastwest;fontSize=16;" parent="HRVgeZ2zx_qD791oWAbW-120" vertex="1">
          <mxGeometry y="185" width="422" height="42" as="geometry" />
        </mxCell>
        <mxCell id="HRVgeZ2zx_qD791oWAbW-134" value="4" style="shape=partialRectangle;html=1;whiteSpace=wrap;connectable=0;strokeColor=inherit;overflow=hidden;fillColor=none;top=0;left=0;bottom=0;right=0;pointerEvents=1;fontSize=16;" parent="HRVgeZ2zx_qD791oWAbW-133" vertex="1">
          <mxGeometry width="105" height="42" as="geometry">
            <mxRectangle width="105" height="42" as="alternateBounds" />
          </mxGeometry>
        </mxCell>
        <mxCell id="HRVgeZ2zx_qD791oWAbW-135" value="ballads" style="shape=partialRectangle;html=1;whiteSpace=wrap;connectable=0;strokeColor=inherit;overflow=hidden;fillColor=none;top=0;left=0;bottom=0;right=0;pointerEvents=1;fontSize=16;" parent="HRVgeZ2zx_qD791oWAbW-133" vertex="1">
          <mxGeometry x="105" width="106" height="42" as="geometry">
            <mxRectangle width="106" height="42" as="alternateBounds" />
          </mxGeometry>
        </mxCell>
        <mxCell id="HRVgeZ2zx_qD791oWAbW-149" value="1996" style="shape=partialRectangle;html=1;whiteSpace=wrap;connectable=0;strokeColor=inherit;overflow=hidden;fillColor=none;top=0;left=0;bottom=0;right=0;pointerEvents=1;fontSize=16;" parent="HRVgeZ2zx_qD791oWAbW-133" vertex="1">
          <mxGeometry x="211" width="106" height="42" as="geometry">
            <mxRectangle width="106" height="42" as="alternateBounds" />
          </mxGeometry>
        </mxCell>
        <mxCell id="HRVgeZ2zx_qD791oWAbW-136" value="4" style="shape=partialRectangle;html=1;whiteSpace=wrap;connectable=0;strokeColor=inherit;overflow=hidden;fillColor=none;top=0;left=0;bottom=0;right=0;pointerEvents=1;fontSize=16;" parent="HRVgeZ2zx_qD791oWAbW-133" vertex="1">
          <mxGeometry x="317" width="105" height="42" as="geometry">
            <mxRectangle width="105" height="42" as="alternateBounds" />
          </mxGeometry>
        </mxCell>
        <mxCell id="HRVgeZ2zx_qD791oWAbW-141" style="shape=tableRow;horizontal=0;startSize=0;swimlaneHead=0;swimlaneBody=0;strokeColor=inherit;top=0;left=0;bottom=0;right=0;collapsible=0;dropTarget=0;fillColor=none;points=[[0,0.5],[1,0.5]];portConstraint=eastwest;fontSize=16;" parent="HRVgeZ2zx_qD791oWAbW-120" vertex="1">
          <mxGeometry y="227" width="422" height="43" as="geometry" />
        </mxCell>
        <mxCell id="HRVgeZ2zx_qD791oWAbW-142" value="5" style="shape=partialRectangle;html=1;whiteSpace=wrap;connectable=0;strokeColor=inherit;overflow=hidden;fillColor=none;top=0;left=0;bottom=0;right=0;pointerEvents=1;fontSize=16;" parent="HRVgeZ2zx_qD791oWAbW-141" vertex="1">
          <mxGeometry width="105" height="43" as="geometry">
            <mxRectangle width="105" height="43" as="alternateBounds" />
          </mxGeometry>
        </mxCell>
        <mxCell id="HRVgeZ2zx_qD791oWAbW-143" value="best" style="shape=partialRectangle;html=1;whiteSpace=wrap;connectable=0;strokeColor=inherit;overflow=hidden;fillColor=none;top=0;left=0;bottom=0;right=0;pointerEvents=1;fontSize=16;" parent="HRVgeZ2zx_qD791oWAbW-141" vertex="1">
          <mxGeometry x="105" width="106" height="43" as="geometry">
            <mxRectangle width="106" height="43" as="alternateBounds" />
          </mxGeometry>
        </mxCell>
        <mxCell id="HRVgeZ2zx_qD791oWAbW-150" value="1999" style="shape=partialRectangle;html=1;whiteSpace=wrap;connectable=0;strokeColor=inherit;overflow=hidden;fillColor=none;top=0;left=0;bottom=0;right=0;pointerEvents=1;fontSize=16;" parent="HRVgeZ2zx_qD791oWAbW-141" vertex="1">
          <mxGeometry x="211" width="106" height="43" as="geometry">
            <mxRectangle width="106" height="43" as="alternateBounds" />
          </mxGeometry>
        </mxCell>
        <mxCell id="HRVgeZ2zx_qD791oWAbW-144" value="5" style="shape=partialRectangle;html=1;whiteSpace=wrap;connectable=0;strokeColor=inherit;overflow=hidden;fillColor=none;top=0;left=0;bottom=0;right=0;pointerEvents=1;fontSize=16;" parent="HRVgeZ2zx_qD791oWAbW-141" vertex="1">
          <mxGeometry x="317" width="105" height="43" as="geometry">
            <mxRectangle width="105" height="43" as="alternateBounds" />
          </mxGeometry>
        </mxCell>
        <mxCell id="-AR9WXZGCbLQwDUmJJtv-36" style="shape=tableRow;horizontal=0;startSize=0;swimlaneHead=0;swimlaneBody=0;strokeColor=inherit;top=0;left=0;bottom=0;right=0;collapsible=0;dropTarget=0;fillColor=none;points=[[0,0.5],[1,0.5]];portConstraint=eastwest;fontSize=16;" vertex="1" parent="HRVgeZ2zx_qD791oWAbW-120">
          <mxGeometry y="270" width="422" height="43" as="geometry" />
        </mxCell>
        <mxCell id="-AR9WXZGCbLQwDUmJJtv-37" value="6" style="shape=partialRectangle;html=1;whiteSpace=wrap;connectable=0;strokeColor=inherit;overflow=hidden;fillColor=none;top=0;left=0;bottom=0;right=0;pointerEvents=1;fontSize=16;" vertex="1" parent="-AR9WXZGCbLQwDUmJJtv-36">
          <mxGeometry width="105" height="43" as="geometry">
            <mxRectangle width="105" height="43" as="alternateBounds" />
          </mxGeometry>
        </mxCell>
        <mxCell id="-AR9WXZGCbLQwDUmJJtv-38" value="zaika moya" style="shape=partialRectangle;html=1;whiteSpace=wrap;connectable=0;strokeColor=inherit;overflow=hidden;fillColor=none;top=0;left=0;bottom=0;right=0;pointerEvents=1;fontSize=16;" vertex="1" parent="-AR9WXZGCbLQwDUmJJtv-36">
          <mxGeometry x="105" width="106" height="43" as="geometry">
            <mxRectangle width="106" height="43" as="alternateBounds" />
          </mxGeometry>
        </mxCell>
        <mxCell id="-AR9WXZGCbLQwDUmJJtv-39" value="2005" style="shape=partialRectangle;html=1;whiteSpace=wrap;connectable=0;strokeColor=inherit;overflow=hidden;fillColor=none;top=0;left=0;bottom=0;right=0;pointerEvents=1;fontSize=16;" vertex="1" parent="-AR9WXZGCbLQwDUmJJtv-36">
          <mxGeometry x="211" width="106" height="43" as="geometry">
            <mxRectangle width="106" height="43" as="alternateBounds" />
          </mxGeometry>
        </mxCell>
        <mxCell id="-AR9WXZGCbLQwDUmJJtv-40" value="3" style="shape=partialRectangle;html=1;whiteSpace=wrap;connectable=0;strokeColor=inherit;overflow=hidden;fillColor=none;top=0;left=0;bottom=0;right=0;pointerEvents=1;fontSize=16;" vertex="1" parent="-AR9WXZGCbLQwDUmJJtv-36">
          <mxGeometry x="317" width="105" height="43" as="geometry">
            <mxRectangle width="105" height="43" as="alternateBounds" />
          </mxGeometry>
        </mxCell>
        <mxCell id="HRVgeZ2zx_qD791oWAbW-151" value="ispolniteli" style="shape=table;startSize=30;container=1;collapsible=0;childLayout=tableLayout;strokeColor=default;fontSize=16;" parent="1" vertex="1">
          <mxGeometry x="40" y="390" width="330" height="290" as="geometry" />
        </mxCell>
        <mxCell id="HRVgeZ2zx_qD791oWAbW-152" value="" style="shape=tableRow;horizontal=0;startSize=0;swimlaneHead=0;swimlaneBody=0;strokeColor=inherit;top=0;left=0;bottom=0;right=0;collapsible=0;dropTarget=0;fillColor=none;points=[[0,0.5],[1,0.5]];portConstraint=eastwest;fontSize=16;" parent="HRVgeZ2zx_qD791oWAbW-151" vertex="1">
          <mxGeometry y="30" width="330" height="43" as="geometry" />
        </mxCell>
        <mxCell id="HRVgeZ2zx_qD791oWAbW-153" value="id" style="shape=partialRectangle;html=1;whiteSpace=wrap;connectable=0;strokeColor=inherit;overflow=hidden;fillColor=none;top=0;left=0;bottom=0;right=0;pointerEvents=1;fontSize=16;" parent="HRVgeZ2zx_qD791oWAbW-152" vertex="1">
          <mxGeometry width="109" height="43" as="geometry">
            <mxRectangle width="109" height="43" as="alternateBounds" />
          </mxGeometry>
        </mxCell>
        <mxCell id="HRVgeZ2zx_qD791oWAbW-154" value="name" style="shape=partialRectangle;html=1;whiteSpace=wrap;connectable=0;strokeColor=inherit;overflow=hidden;fillColor=none;top=0;left=0;bottom=0;right=0;pointerEvents=1;fontSize=16;" parent="HRVgeZ2zx_qD791oWAbW-152" vertex="1">
          <mxGeometry x="109" width="108" height="43" as="geometry">
            <mxRectangle width="108" height="43" as="alternateBounds" />
          </mxGeometry>
        </mxCell>
        <mxCell id="HRVgeZ2zx_qD791oWAbW-155" value="Zhanr_id" style="shape=partialRectangle;html=1;whiteSpace=wrap;connectable=0;strokeColor=inherit;overflow=hidden;fillColor=none;top=0;left=0;bottom=0;right=0;pointerEvents=1;fontSize=16;" parent="HRVgeZ2zx_qD791oWAbW-152" vertex="1">
          <mxGeometry x="217" width="113" height="43" as="geometry">
            <mxRectangle width="113" height="43" as="alternateBounds" />
          </mxGeometry>
        </mxCell>
        <mxCell id="HRVgeZ2zx_qD791oWAbW-156" value="" style="shape=tableRow;horizontal=0;startSize=0;swimlaneHead=0;swimlaneBody=0;strokeColor=inherit;top=0;left=0;bottom=0;right=0;collapsible=0;dropTarget=0;fillColor=none;points=[[0,0.5],[1,0.5]];portConstraint=eastwest;fontSize=16;" parent="HRVgeZ2zx_qD791oWAbW-151" vertex="1">
          <mxGeometry y="73" width="330" height="44" as="geometry" />
        </mxCell>
        <mxCell id="HRVgeZ2zx_qD791oWAbW-157" value="1" style="shape=partialRectangle;html=1;whiteSpace=wrap;connectable=0;strokeColor=inherit;overflow=hidden;fillColor=none;top=0;left=0;bottom=0;right=0;pointerEvents=1;fontSize=16;" parent="HRVgeZ2zx_qD791oWAbW-156" vertex="1">
          <mxGeometry width="109" height="44" as="geometry">
            <mxRectangle width="109" height="44" as="alternateBounds" />
          </mxGeometry>
        </mxCell>
        <mxCell id="HRVgeZ2zx_qD791oWAbW-158" value="Malikov" style="shape=partialRectangle;html=1;whiteSpace=wrap;connectable=0;strokeColor=inherit;overflow=hidden;fillColor=none;top=0;left=0;bottom=0;right=0;pointerEvents=1;fontSize=16;" parent="HRVgeZ2zx_qD791oWAbW-156" vertex="1">
          <mxGeometry x="109" width="108" height="44" as="geometry">
            <mxRectangle width="108" height="44" as="alternateBounds" />
          </mxGeometry>
        </mxCell>
        <mxCell id="HRVgeZ2zx_qD791oWAbW-159" value="1" style="shape=partialRectangle;html=1;whiteSpace=wrap;connectable=0;strokeColor=inherit;overflow=hidden;fillColor=none;top=0;left=0;bottom=0;right=0;pointerEvents=1;fontSize=16;" parent="HRVgeZ2zx_qD791oWAbW-156" vertex="1">
          <mxGeometry x="217" width="113" height="44" as="geometry">
            <mxRectangle width="113" height="44" as="alternateBounds" />
          </mxGeometry>
        </mxCell>
        <mxCell id="HRVgeZ2zx_qD791oWAbW-160" value="" style="shape=tableRow;horizontal=0;startSize=0;swimlaneHead=0;swimlaneBody=0;strokeColor=inherit;top=0;left=0;bottom=0;right=0;collapsible=0;dropTarget=0;fillColor=none;points=[[0,0.5],[1,0.5]];portConstraint=eastwest;fontSize=16;" parent="HRVgeZ2zx_qD791oWAbW-151" vertex="1">
          <mxGeometry y="117" width="330" height="43" as="geometry" />
        </mxCell>
        <mxCell id="HRVgeZ2zx_qD791oWAbW-161" value="2" style="shape=partialRectangle;html=1;whiteSpace=wrap;connectable=0;strokeColor=inherit;overflow=hidden;fillColor=none;top=0;left=0;bottom=0;right=0;pointerEvents=1;fontSize=16;" parent="HRVgeZ2zx_qD791oWAbW-160" vertex="1">
          <mxGeometry width="109" height="43" as="geometry">
            <mxRectangle width="109" height="43" as="alternateBounds" />
          </mxGeometry>
        </mxCell>
        <mxCell id="HRVgeZ2zx_qD791oWAbW-162" value="Nirvana" style="shape=partialRectangle;html=1;whiteSpace=wrap;connectable=0;strokeColor=inherit;overflow=hidden;fillColor=none;top=0;left=0;bottom=0;right=0;pointerEvents=1;fontSize=16;" parent="HRVgeZ2zx_qD791oWAbW-160" vertex="1">
          <mxGeometry x="109" width="108" height="43" as="geometry">
            <mxRectangle width="108" height="43" as="alternateBounds" />
          </mxGeometry>
        </mxCell>
        <mxCell id="HRVgeZ2zx_qD791oWAbW-163" value="3" style="shape=partialRectangle;html=1;whiteSpace=wrap;connectable=0;strokeColor=inherit;overflow=hidden;fillColor=none;top=0;left=0;bottom=0;right=0;pointerEvents=1;fontSize=16;" parent="HRVgeZ2zx_qD791oWAbW-160" vertex="1">
          <mxGeometry x="217" width="113" height="43" as="geometry">
            <mxRectangle width="113" height="43" as="alternateBounds" />
          </mxGeometry>
        </mxCell>
        <mxCell id="HRVgeZ2zx_qD791oWAbW-164" style="shape=tableRow;horizontal=0;startSize=0;swimlaneHead=0;swimlaneBody=0;strokeColor=inherit;top=0;left=0;bottom=0;right=0;collapsible=0;dropTarget=0;fillColor=none;points=[[0,0.5],[1,0.5]];portConstraint=eastwest;fontSize=16;" parent="HRVgeZ2zx_qD791oWAbW-151" vertex="1">
          <mxGeometry y="160" width="330" height="43" as="geometry" />
        </mxCell>
        <mxCell id="HRVgeZ2zx_qD791oWAbW-165" value="3" style="shape=partialRectangle;html=1;whiteSpace=wrap;connectable=0;strokeColor=inherit;overflow=hidden;fillColor=none;top=0;left=0;bottom=0;right=0;pointerEvents=1;fontSize=16;" parent="HRVgeZ2zx_qD791oWAbW-164" vertex="1">
          <mxGeometry width="109" height="43" as="geometry">
            <mxRectangle width="109" height="43" as="alternateBounds" />
          </mxGeometry>
        </mxCell>
        <mxCell id="HRVgeZ2zx_qD791oWAbW-166" value="Kirkorov" style="shape=partialRectangle;html=1;whiteSpace=wrap;connectable=0;strokeColor=inherit;overflow=hidden;fillColor=none;top=0;left=0;bottom=0;right=0;pointerEvents=1;fontSize=16;" parent="HRVgeZ2zx_qD791oWAbW-164" vertex="1">
          <mxGeometry x="109" width="108" height="43" as="geometry">
            <mxRectangle width="108" height="43" as="alternateBounds" />
          </mxGeometry>
        </mxCell>
        <mxCell id="HRVgeZ2zx_qD791oWAbW-167" value="1" style="shape=partialRectangle;html=1;whiteSpace=wrap;connectable=0;strokeColor=inherit;overflow=hidden;fillColor=none;top=0;left=0;bottom=0;right=0;pointerEvents=1;fontSize=16;" parent="HRVgeZ2zx_qD791oWAbW-164" vertex="1">
          <mxGeometry x="217" width="113" height="43" as="geometry">
            <mxRectangle width="113" height="43" as="alternateBounds" />
          </mxGeometry>
        </mxCell>
        <mxCell id="HRVgeZ2zx_qD791oWAbW-168" style="shape=tableRow;horizontal=0;startSize=0;swimlaneHead=0;swimlaneBody=0;strokeColor=inherit;top=0;left=0;bottom=0;right=0;collapsible=0;dropTarget=0;fillColor=none;points=[[0,0.5],[1,0.5]];portConstraint=eastwest;fontSize=16;" parent="HRVgeZ2zx_qD791oWAbW-151" vertex="1">
          <mxGeometry y="203" width="330" height="44" as="geometry" />
        </mxCell>
        <mxCell id="HRVgeZ2zx_qD791oWAbW-169" value="4" style="shape=partialRectangle;html=1;whiteSpace=wrap;connectable=0;strokeColor=inherit;overflow=hidden;fillColor=none;top=0;left=0;bottom=0;right=0;pointerEvents=1;fontSize=16;" parent="HRVgeZ2zx_qD791oWAbW-168" vertex="1">
          <mxGeometry width="109" height="44" as="geometry">
            <mxRectangle width="109" height="44" as="alternateBounds" />
          </mxGeometry>
        </mxCell>
        <mxCell id="HRVgeZ2zx_qD791oWAbW-170" value="Metallica" style="shape=partialRectangle;html=1;whiteSpace=wrap;connectable=0;strokeColor=inherit;overflow=hidden;fillColor=none;top=0;left=0;bottom=0;right=0;pointerEvents=1;fontSize=16;" parent="HRVgeZ2zx_qD791oWAbW-168" vertex="1">
          <mxGeometry x="109" width="108" height="44" as="geometry">
            <mxRectangle width="108" height="44" as="alternateBounds" />
          </mxGeometry>
        </mxCell>
        <mxCell id="HRVgeZ2zx_qD791oWAbW-171" value="2" style="shape=partialRectangle;html=1;whiteSpace=wrap;connectable=0;strokeColor=inherit;overflow=hidden;fillColor=none;top=0;left=0;bottom=0;right=0;pointerEvents=1;fontSize=16;" parent="HRVgeZ2zx_qD791oWAbW-168" vertex="1">
          <mxGeometry x="217" width="113" height="44" as="geometry">
            <mxRectangle width="113" height="44" as="alternateBounds" />
          </mxGeometry>
        </mxCell>
        <mxCell id="-AR9WXZGCbLQwDUmJJtv-32" style="shape=tableRow;horizontal=0;startSize=0;swimlaneHead=0;swimlaneBody=0;strokeColor=inherit;top=0;left=0;bottom=0;right=0;collapsible=0;dropTarget=0;fillColor=none;points=[[0,0.5],[1,0.5]];portConstraint=eastwest;fontSize=16;" vertex="1" parent="HRVgeZ2zx_qD791oWAbW-151">
          <mxGeometry y="247" width="330" height="43" as="geometry" />
        </mxCell>
        <mxCell id="-AR9WXZGCbLQwDUmJJtv-33" value="5" style="shape=partialRectangle;html=1;whiteSpace=wrap;connectable=0;strokeColor=inherit;overflow=hidden;fillColor=none;top=0;left=0;bottom=0;right=0;pointerEvents=1;fontSize=16;" vertex="1" parent="-AR9WXZGCbLQwDUmJJtv-32">
          <mxGeometry width="109" height="43" as="geometry">
            <mxRectangle width="109" height="43" as="alternateBounds" />
          </mxGeometry>
        </mxCell>
        <mxCell id="-AR9WXZGCbLQwDUmJJtv-34" value="Aerosmith" style="shape=partialRectangle;html=1;whiteSpace=wrap;connectable=0;strokeColor=inherit;overflow=hidden;fillColor=none;top=0;left=0;bottom=0;right=0;pointerEvents=1;fontSize=16;" vertex="1" parent="-AR9WXZGCbLQwDUmJJtv-32">
          <mxGeometry x="109" width="108" height="43" as="geometry">
            <mxRectangle width="108" height="43" as="alternateBounds" />
          </mxGeometry>
        </mxCell>
        <mxCell id="-AR9WXZGCbLQwDUmJJtv-35" value="2" style="shape=partialRectangle;html=1;whiteSpace=wrap;connectable=0;strokeColor=inherit;overflow=hidden;fillColor=none;top=0;left=0;bottom=0;right=0;pointerEvents=1;fontSize=16;" vertex="1" parent="-AR9WXZGCbLQwDUmJJtv-32">
          <mxGeometry x="217" width="113" height="43" as="geometry">
            <mxRectangle width="113" height="43" as="alternateBounds" />
          </mxGeometry>
        </mxCell>
        <mxCell id="HRVgeZ2zx_qD791oWAbW-172" value="Songs" style="shape=table;startSize=30;container=1;collapsible=0;childLayout=tableLayout;strokeColor=default;fontSize=16;" parent="1" vertex="1">
          <mxGeometry x="480" y="415" width="394" height="275" as="geometry" />
        </mxCell>
        <mxCell id="HRVgeZ2zx_qD791oWAbW-185" style="shape=tableRow;horizontal=0;startSize=0;swimlaneHead=0;swimlaneBody=0;strokeColor=inherit;top=0;left=0;bottom=0;right=0;collapsible=0;dropTarget=0;fillColor=none;points=[[0,0.5],[1,0.5]];portConstraint=eastwest;fontSize=16;" parent="HRVgeZ2zx_qD791oWAbW-172" vertex="1">
          <mxGeometry y="30" width="394" height="35" as="geometry" />
        </mxCell>
        <mxCell id="HRVgeZ2zx_qD791oWAbW-186" value="id" style="shape=partialRectangle;html=1;whiteSpace=wrap;connectable=0;strokeColor=inherit;overflow=hidden;fillColor=none;top=0;left=0;bottom=0;right=0;pointerEvents=1;fontSize=16;" parent="HRVgeZ2zx_qD791oWAbW-185" vertex="1">
          <mxGeometry width="99" height="35" as="geometry">
            <mxRectangle width="99" height="35" as="alternateBounds" />
          </mxGeometry>
        </mxCell>
        <mxCell id="HRVgeZ2zx_qD791oWAbW-187" value="songname" style="shape=partialRectangle;html=1;whiteSpace=wrap;connectable=0;strokeColor=inherit;overflow=hidden;fillColor=none;top=0;left=0;bottom=0;right=0;pointerEvents=1;fontSize=16;" parent="HRVgeZ2zx_qD791oWAbW-185" vertex="1">
          <mxGeometry x="99" width="98" height="35" as="geometry">
            <mxRectangle width="98" height="35" as="alternateBounds" />
          </mxGeometry>
        </mxCell>
        <mxCell id="HRVgeZ2zx_qD791oWAbW-188" value="long" style="shape=partialRectangle;html=1;whiteSpace=wrap;connectable=0;strokeColor=inherit;overflow=hidden;fillColor=none;top=0;left=0;bottom=0;right=0;pointerEvents=1;fontSize=16;" parent="HRVgeZ2zx_qD791oWAbW-185" vertex="1">
          <mxGeometry x="197" width="99" height="35" as="geometry">
            <mxRectangle width="99" height="35" as="alternateBounds" />
          </mxGeometry>
        </mxCell>
        <mxCell id="HRVgeZ2zx_qD791oWAbW-189" value="album_id" style="shape=partialRectangle;html=1;whiteSpace=wrap;connectable=0;strokeColor=inherit;overflow=hidden;fillColor=none;top=0;left=0;bottom=0;right=0;pointerEvents=1;fontSize=16;" parent="HRVgeZ2zx_qD791oWAbW-185" vertex="1">
          <mxGeometry x="296" width="98" height="35" as="geometry">
            <mxRectangle width="98" height="35" as="alternateBounds" />
          </mxGeometry>
        </mxCell>
        <mxCell id="HRVgeZ2zx_qD791oWAbW-173" value="" style="shape=tableRow;horizontal=0;startSize=0;swimlaneHead=0;swimlaneBody=0;strokeColor=inherit;top=0;left=0;bottom=0;right=0;collapsible=0;dropTarget=0;fillColor=none;points=[[0,0.5],[1,0.5]];portConstraint=eastwest;fontSize=16;" parent="HRVgeZ2zx_qD791oWAbW-172" vertex="1">
          <mxGeometry y="65" width="394" height="35" as="geometry" />
        </mxCell>
        <mxCell id="HRVgeZ2zx_qD791oWAbW-174" value="1" style="shape=partialRectangle;html=1;whiteSpace=wrap;connectable=0;strokeColor=inherit;overflow=hidden;fillColor=none;top=0;left=0;bottom=0;right=0;pointerEvents=1;fontSize=16;" parent="HRVgeZ2zx_qD791oWAbW-173" vertex="1">
          <mxGeometry width="99" height="35" as="geometry">
            <mxRectangle width="99" height="35" as="alternateBounds" />
          </mxGeometry>
        </mxCell>
        <mxCell id="HRVgeZ2zx_qD791oWAbW-175" value="crying" style="shape=partialRectangle;html=1;whiteSpace=wrap;connectable=0;strokeColor=inherit;overflow=hidden;fillColor=none;top=0;left=0;bottom=0;right=0;pointerEvents=1;fontSize=16;" parent="HRVgeZ2zx_qD791oWAbW-173" vertex="1">
          <mxGeometry x="99" width="98" height="35" as="geometry">
            <mxRectangle width="98" height="35" as="alternateBounds" />
          </mxGeometry>
        </mxCell>
        <mxCell id="HRVgeZ2zx_qD791oWAbW-176" value="4-11" style="shape=partialRectangle;html=1;whiteSpace=wrap;connectable=0;strokeColor=inherit;overflow=hidden;fillColor=none;top=0;left=0;bottom=0;right=0;pointerEvents=1;fontSize=16;" parent="HRVgeZ2zx_qD791oWAbW-173" vertex="1">
          <mxGeometry x="197" width="99" height="35" as="geometry">
            <mxRectangle width="99" height="35" as="alternateBounds" />
          </mxGeometry>
        </mxCell>
        <mxCell id="HRVgeZ2zx_qD791oWAbW-190" value="5" style="shape=partialRectangle;html=1;whiteSpace=wrap;connectable=0;strokeColor=inherit;overflow=hidden;fillColor=none;top=0;left=0;bottom=0;right=0;pointerEvents=1;fontSize=16;" parent="HRVgeZ2zx_qD791oWAbW-173" vertex="1">
          <mxGeometry x="296" width="98" height="35" as="geometry">
            <mxRectangle width="98" height="35" as="alternateBounds" />
          </mxGeometry>
        </mxCell>
        <mxCell id="HRVgeZ2zx_qD791oWAbW-177" value="" style="shape=tableRow;horizontal=0;startSize=0;swimlaneHead=0;swimlaneBody=0;strokeColor=inherit;top=0;left=0;bottom=0;right=0;collapsible=0;dropTarget=0;fillColor=none;points=[[0,0.5],[1,0.5]];portConstraint=eastwest;fontSize=16;" parent="HRVgeZ2zx_qD791oWAbW-172" vertex="1">
          <mxGeometry y="100" width="394" height="35" as="geometry" />
        </mxCell>
        <mxCell id="HRVgeZ2zx_qD791oWAbW-178" value="2" style="shape=partialRectangle;html=1;whiteSpace=wrap;connectable=0;strokeColor=inherit;overflow=hidden;fillColor=none;top=0;left=0;bottom=0;right=0;pointerEvents=1;fontSize=16;" parent="HRVgeZ2zx_qD791oWAbW-177" vertex="1">
          <mxGeometry width="99" height="35" as="geometry">
            <mxRectangle width="99" height="35" as="alternateBounds" />
          </mxGeometry>
        </mxCell>
        <mxCell id="HRVgeZ2zx_qD791oWAbW-179" value="entersadman" style="shape=partialRectangle;html=1;whiteSpace=wrap;connectable=0;strokeColor=inherit;overflow=hidden;fillColor=none;top=0;left=0;bottom=0;right=0;pointerEvents=1;fontSize=16;" parent="HRVgeZ2zx_qD791oWAbW-177" vertex="1">
          <mxGeometry x="99" width="98" height="35" as="geometry">
            <mxRectangle width="98" height="35" as="alternateBounds" />
          </mxGeometry>
        </mxCell>
        <mxCell id="HRVgeZ2zx_qD791oWAbW-180" value="5-02" style="shape=partialRectangle;html=1;whiteSpace=wrap;connectable=0;strokeColor=inherit;overflow=hidden;fillColor=none;top=0;left=0;bottom=0;right=0;pointerEvents=1;fontSize=16;" parent="HRVgeZ2zx_qD791oWAbW-177" vertex="1">
          <mxGeometry x="197" width="99" height="35" as="geometry">
            <mxRectangle width="99" height="35" as="alternateBounds" />
          </mxGeometry>
        </mxCell>
        <mxCell id="HRVgeZ2zx_qD791oWAbW-191" value="4" style="shape=partialRectangle;html=1;whiteSpace=wrap;connectable=0;strokeColor=inherit;overflow=hidden;fillColor=none;top=0;left=0;bottom=0;right=0;pointerEvents=1;fontSize=16;" parent="HRVgeZ2zx_qD791oWAbW-177" vertex="1">
          <mxGeometry x="296" width="98" height="35" as="geometry">
            <mxRectangle width="98" height="35" as="alternateBounds" />
          </mxGeometry>
        </mxCell>
        <mxCell id="HRVgeZ2zx_qD791oWAbW-181" value="" style="shape=tableRow;horizontal=0;startSize=0;swimlaneHead=0;swimlaneBody=0;strokeColor=inherit;top=0;left=0;bottom=0;right=0;collapsible=0;dropTarget=0;fillColor=none;points=[[0,0.5],[1,0.5]];portConstraint=eastwest;fontSize=16;" parent="HRVgeZ2zx_qD791oWAbW-172" vertex="1">
          <mxGeometry y="135" width="394" height="35" as="geometry" />
        </mxCell>
        <mxCell id="HRVgeZ2zx_qD791oWAbW-182" value="3" style="shape=partialRectangle;html=1;whiteSpace=wrap;connectable=0;strokeColor=inherit;overflow=hidden;fillColor=none;top=0;left=0;bottom=0;right=0;pointerEvents=1;fontSize=16;" parent="HRVgeZ2zx_qD791oWAbW-181" vertex="1">
          <mxGeometry width="99" height="35" as="geometry">
            <mxRectangle width="99" height="35" as="alternateBounds" />
          </mxGeometry>
        </mxCell>
        <mxCell id="HRVgeZ2zx_qD791oWAbW-183" value="TraLaLa" style="shape=partialRectangle;html=1;whiteSpace=wrap;connectable=0;strokeColor=inherit;overflow=hidden;fillColor=none;top=0;left=0;bottom=0;right=0;pointerEvents=1;fontSize=16;" parent="HRVgeZ2zx_qD791oWAbW-181" vertex="1">
          <mxGeometry x="99" width="98" height="35" as="geometry">
            <mxRectangle width="98" height="35" as="alternateBounds" />
          </mxGeometry>
        </mxCell>
        <mxCell id="HRVgeZ2zx_qD791oWAbW-184" value="3-23" style="shape=partialRectangle;html=1;whiteSpace=wrap;connectable=0;strokeColor=inherit;overflow=hidden;fillColor=none;top=0;left=0;bottom=0;right=0;pointerEvents=1;fontSize=16;" parent="HRVgeZ2zx_qD791oWAbW-181" vertex="1">
          <mxGeometry x="197" width="99" height="35" as="geometry">
            <mxRectangle width="99" height="35" as="alternateBounds" />
          </mxGeometry>
        </mxCell>
        <mxCell id="HRVgeZ2zx_qD791oWAbW-192" value="1" style="shape=partialRectangle;html=1;whiteSpace=wrap;connectable=0;strokeColor=inherit;overflow=hidden;fillColor=none;top=0;left=0;bottom=0;right=0;pointerEvents=1;fontSize=16;" parent="HRVgeZ2zx_qD791oWAbW-181" vertex="1">
          <mxGeometry x="296" width="98" height="35" as="geometry">
            <mxRectangle width="98" height="35" as="alternateBounds" />
          </mxGeometry>
        </mxCell>
        <mxCell id="HRVgeZ2zx_qD791oWAbW-199" style="shape=tableRow;horizontal=0;startSize=0;swimlaneHead=0;swimlaneBody=0;strokeColor=inherit;top=0;left=0;bottom=0;right=0;collapsible=0;dropTarget=0;fillColor=none;points=[[0,0.5],[1,0.5]];portConstraint=eastwest;fontSize=16;" parent="HRVgeZ2zx_qD791oWAbW-172" vertex="1">
          <mxGeometry y="170" width="394" height="35" as="geometry" />
        </mxCell>
        <mxCell id="HRVgeZ2zx_qD791oWAbW-200" value="4" style="shape=partialRectangle;html=1;whiteSpace=wrap;connectable=0;strokeColor=inherit;overflow=hidden;fillColor=none;top=0;left=0;bottom=0;right=0;pointerEvents=1;fontSize=16;" parent="HRVgeZ2zx_qD791oWAbW-199" vertex="1">
          <mxGeometry width="99" height="35" as="geometry">
            <mxRectangle width="99" height="35" as="alternateBounds" />
          </mxGeometry>
        </mxCell>
        <mxCell id="HRVgeZ2zx_qD791oWAbW-201" value="sunnyday" style="shape=partialRectangle;html=1;whiteSpace=wrap;connectable=0;strokeColor=inherit;overflow=hidden;fillColor=none;top=0;left=0;bottom=0;right=0;pointerEvents=1;fontSize=16;" parent="HRVgeZ2zx_qD791oWAbW-199" vertex="1">
          <mxGeometry x="99" width="98" height="35" as="geometry">
            <mxRectangle width="98" height="35" as="alternateBounds" />
          </mxGeometry>
        </mxCell>
        <mxCell id="HRVgeZ2zx_qD791oWAbW-202" value="5-43" style="shape=partialRectangle;html=1;whiteSpace=wrap;connectable=0;strokeColor=inherit;overflow=hidden;fillColor=none;top=0;left=0;bottom=0;right=0;pointerEvents=1;fontSize=16;" parent="HRVgeZ2zx_qD791oWAbW-199" vertex="1">
          <mxGeometry x="197" width="99" height="35" as="geometry">
            <mxRectangle width="99" height="35" as="alternateBounds" />
          </mxGeometry>
        </mxCell>
        <mxCell id="HRVgeZ2zx_qD791oWAbW-203" value="2" style="shape=partialRectangle;html=1;whiteSpace=wrap;connectable=0;strokeColor=inherit;overflow=hidden;fillColor=none;top=0;left=0;bottom=0;right=0;pointerEvents=1;fontSize=16;" parent="HRVgeZ2zx_qD791oWAbW-199" vertex="1">
          <mxGeometry x="296" width="98" height="35" as="geometry">
            <mxRectangle width="98" height="35" as="alternateBounds" />
          </mxGeometry>
        </mxCell>
        <mxCell id="HRVgeZ2zx_qD791oWAbW-194" style="shape=tableRow;horizontal=0;startSize=0;swimlaneHead=0;swimlaneBody=0;strokeColor=inherit;top=0;left=0;bottom=0;right=0;collapsible=0;dropTarget=0;fillColor=none;points=[[0,0.5],[1,0.5]];portConstraint=eastwest;fontSize=16;" parent="HRVgeZ2zx_qD791oWAbW-172" vertex="1">
          <mxGeometry y="205" width="394" height="35" as="geometry" />
        </mxCell>
        <mxCell id="HRVgeZ2zx_qD791oWAbW-195" value="5" style="shape=partialRectangle;html=1;whiteSpace=wrap;connectable=0;strokeColor=inherit;overflow=hidden;fillColor=none;top=0;left=0;bottom=0;right=0;pointerEvents=1;fontSize=16;" parent="HRVgeZ2zx_qD791oWAbW-194" vertex="1">
          <mxGeometry width="99" height="35" as="geometry">
            <mxRectangle width="99" height="35" as="alternateBounds" />
          </mxGeometry>
        </mxCell>
        <mxCell id="HRVgeZ2zx_qD791oWAbW-196" value="spirit" style="shape=partialRectangle;html=1;whiteSpace=wrap;connectable=0;strokeColor=inherit;overflow=hidden;fillColor=none;top=0;left=0;bottom=0;right=0;pointerEvents=1;fontSize=16;" parent="HRVgeZ2zx_qD791oWAbW-194" vertex="1">
          <mxGeometry x="99" width="98" height="35" as="geometry">
            <mxRectangle width="98" height="35" as="alternateBounds" />
          </mxGeometry>
        </mxCell>
        <mxCell id="HRVgeZ2zx_qD791oWAbW-197" value="3-44" style="shape=partialRectangle;html=1;whiteSpace=wrap;connectable=0;strokeColor=inherit;overflow=hidden;fillColor=none;top=0;left=0;bottom=0;right=0;pointerEvents=1;fontSize=16;" parent="HRVgeZ2zx_qD791oWAbW-194" vertex="1">
          <mxGeometry x="197" width="99" height="35" as="geometry">
            <mxRectangle width="99" height="35" as="alternateBounds" />
          </mxGeometry>
        </mxCell>
        <mxCell id="HRVgeZ2zx_qD791oWAbW-198" value="3" style="shape=partialRectangle;html=1;whiteSpace=wrap;connectable=0;strokeColor=inherit;overflow=hidden;fillColor=none;top=0;left=0;bottom=0;right=0;pointerEvents=1;fontSize=16;" parent="HRVgeZ2zx_qD791oWAbW-194" vertex="1">
          <mxGeometry x="296" width="98" height="35" as="geometry">
            <mxRectangle width="98" height="35" as="alternateBounds" />
          </mxGeometry>
        </mxCell>
        <mxCell id="-AR9WXZGCbLQwDUmJJtv-49" style="shape=tableRow;horizontal=0;startSize=0;swimlaneHead=0;swimlaneBody=0;strokeColor=inherit;top=0;left=0;bottom=0;right=0;collapsible=0;dropTarget=0;fillColor=none;points=[[0,0.5],[1,0.5]];portConstraint=eastwest;fontSize=16;" vertex="1" parent="HRVgeZ2zx_qD791oWAbW-172">
          <mxGeometry y="240" width="394" height="35" as="geometry" />
        </mxCell>
        <mxCell id="-AR9WXZGCbLQwDUmJJtv-50" value="6" style="shape=partialRectangle;html=1;whiteSpace=wrap;connectable=0;strokeColor=inherit;overflow=hidden;fillColor=none;top=0;left=0;bottom=0;right=0;pointerEvents=1;fontSize=16;" vertex="1" parent="-AR9WXZGCbLQwDUmJJtv-49">
          <mxGeometry width="99" height="35" as="geometry">
            <mxRectangle width="99" height="35" as="alternateBounds" />
          </mxGeometry>
        </mxCell>
        <mxCell id="-AR9WXZGCbLQwDUmJJtv-51" value="whiskey" style="shape=partialRectangle;html=1;whiteSpace=wrap;connectable=0;strokeColor=inherit;overflow=hidden;fillColor=none;top=0;left=0;bottom=0;right=0;pointerEvents=1;fontSize=16;" vertex="1" parent="-AR9WXZGCbLQwDUmJJtv-49">
          <mxGeometry x="99" width="98" height="35" as="geometry">
            <mxRectangle width="98" height="35" as="alternateBounds" />
          </mxGeometry>
        </mxCell>
        <mxCell id="-AR9WXZGCbLQwDUmJJtv-52" value="4-55" style="shape=partialRectangle;html=1;whiteSpace=wrap;connectable=0;strokeColor=inherit;overflow=hidden;fillColor=none;top=0;left=0;bottom=0;right=0;pointerEvents=1;fontSize=16;" vertex="1" parent="-AR9WXZGCbLQwDUmJJtv-49">
          <mxGeometry x="197" width="99" height="35" as="geometry">
            <mxRectangle width="99" height="35" as="alternateBounds" />
          </mxGeometry>
        </mxCell>
        <mxCell id="-AR9WXZGCbLQwDUmJJtv-53" value="4" style="shape=partialRectangle;html=1;whiteSpace=wrap;connectable=0;strokeColor=inherit;overflow=hidden;fillColor=none;top=0;left=0;bottom=0;right=0;pointerEvents=1;fontSize=16;" vertex="1" parent="-AR9WXZGCbLQwDUmJJtv-49">
          <mxGeometry x="296" width="98" height="35" as="geometry">
            <mxRectangle width="98" height="35" as="alternateBounds" />
          </mxGeometry>
        </mxCell>
        <mxCell id="-AR9WXZGCbLQwDUmJJtv-41" style="edgeStyle=orthogonalEdgeStyle;rounded=0;orthogonalLoop=1;jettySize=auto;html=1;exitX=1;exitY=0.5;exitDx=0;exitDy=0;" edge="1" parent="1" source="HRVgeZ2zx_qD791oWAbW-152" target="HRVgeZ2zx_qD791oWAbW-58">
          <mxGeometry relative="1" as="geometry" />
        </mxCell>
        <mxCell id="-AR9WXZGCbLQwDUmJJtv-42" style="edgeStyle=orthogonalEdgeStyle;rounded=0;orthogonalLoop=1;jettySize=auto;html=1;exitX=1;exitY=0.5;exitDx=0;exitDy=0;" edge="1" parent="1" source="HRVgeZ2zx_qD791oWAbW-121" target="HRVgeZ2zx_qD791oWAbW-151">
          <mxGeometry relative="1" as="geometry">
            <Array as="points">
              <mxPoint x="870" y="80" />
              <mxPoint x="870" y="400" />
            </Array>
          </mxGeometry>
        </mxCell>
        <mxCell id="-AR9WXZGCbLQwDUmJJtv-54" style="edgeStyle=orthogonalEdgeStyle;rounded=0;orthogonalLoop=1;jettySize=auto;html=1;exitX=1;exitY=0.5;exitDx=0;exitDy=0;" edge="1" parent="1" source="HRVgeZ2zx_qD791oWAbW-185" target="HRVgeZ2zx_qD791oWAbW-120">
          <mxGeometry relative="1" as="geometry">
            <Array as="points">
              <mxPoint x="950" y="463" />
              <mxPoint x="950" y="160" />
            </Array>
          </mxGeometry>
        </mxCell>
      </root>
    </mxGraphModel>
  </diagram>
</mxfile>
